<?xml version="1.0" encoding="utf-8"?>
<!-- Generator: Adobe Illustrator 16.0.3, SVG Export Plug-In . SVG Version: 6.00 Build 0)  -->
<!DOCTYPE svg PUBLIC "-//W3C//DTD SVG 1.1//EN" "http://www.w3.org/Graphics/SVG/1.1/DTD/svg11.dtd">
<svg version="1.1" id="pro-logo" xmlns="http://www.w3.org/2000/svg" xmlns:xlink="http://www.w3.org/1999/xlink" x="0px" y="0px"
	 width="300px" height="160.76px" viewBox="0 0 300 160.76" enable-background="new 0 0 300 160.76" xml:space="preserve">
<g>
	<g>
		<path fill="#63C19D" d="M12.605,150.265c1.68-1.682,2.531-3.745,2.531-6.137c0-2.357-0.851-4.409-2.528-6.099
			c-1.4-1.413-3.141-2.265-5.289-2.537H0.06v25.006h4.069v-7.686h1.99l4.923,7.686h4.904l-5.549-8.538
			C11.103,151.59,11.833,151.028,12.605,150.265z M4.128,139.562h2.357c1.271,0,2.331,0.438,3.237,1.339
			c0.905,0.899,1.344,1.955,1.344,3.228c0,1.282-0.44,2.347-1.344,3.254c-0.905,0.904-1.964,1.343-3.237,1.343H4.128V139.562z"/>
		<polygon fill="#63C19D" points="37.555,160.498 51.471,160.498 51.471,156.428 41.624,156.428 41.624,150.03 51.471,150.03 
			51.471,145.96 41.624,145.96 41.624,139.544 51.471,139.544 51.471,135.492 37.555,135.492 		"/>
		<path fill="#63C19D" d="M86.728,139.316c2.22,0,4.217,0.812,6.106,2.48l0.586,0.517l3.049-2.709l-0.722-0.659
			c-2.709-2.474-5.743-3.729-9.019-3.729c-3.521,0-6.563,1.262-9.04,3.751c-2.477,2.487-3.733,5.523-3.733,9.021
			c0,3.52,1.256,6.562,3.734,9.039c2.476,2.478,5.517,3.732,9.039,3.732c3.278,0,6.311-1.242,9.016-3.696l0.725-0.656l-3.048-2.73
			l-0.588,0.521c-1.887,1.678-3.884,2.491-6.104,2.491c-2.419,0-4.427-0.831-6.141-2.544c-1.713-1.714-2.546-3.728-2.546-6.157
			c0-2.416,0.833-4.422,2.545-6.132C82.303,140.147,84.311,139.316,86.728,139.316z"/>
		<path fill="#63C19D" d="M130.308,135.165c-3.506,0-6.548,1.262-9.039,3.753c-2.488,2.487-3.75,5.528-3.75,9.036
			c0,3.532,1.262,6.581,3.751,9.063c2.488,2.485,5.528,3.743,9.038,3.743c3.521,0,6.568-1.258,9.054-3.741
			c2.49-2.481,3.752-5.532,3.752-9.064c0-3.508-1.262-6.549-3.751-9.036C136.873,136.427,133.826,135.165,130.308,135.165z
			 M130.308,156.689c-2.418,0-4.428-0.838-6.147-2.562c-1.72-1.724-2.556-3.743-2.556-6.174c0-2.416,0.836-4.428,2.556-6.147
			c1.718-1.72,3.729-2.555,6.148-2.555c2.43,0,4.446,0.835,6.165,2.555c1.72,1.722,2.556,3.731,2.556,6.147
			c0,2.431-0.836,4.45-2.556,6.174C134.753,155.852,132.737,156.689,130.308,156.689z"/>
		<polygon fill="#63C19D" points="174.043,153.444 167.505,135.509 163.19,135.509 172.307,160.498 175.794,160.498 185,135.492 
			180.686,135.492 		"/>
		<polygon fill="#63C19D" points="205.906,160.498 219.822,160.498 219.822,156.428 209.976,156.428 209.976,150.03 219.822,150.03 
			219.822,145.96 209.976,145.96 209.976,139.544 219.822,139.544 219.822,135.492 205.906,135.492 		"/>
		<path fill="#63C19D" d="M255.474,150.265c1.68-1.682,2.532-3.745,2.532-6.137c0-2.357-0.851-4.409-2.529-6.099
			c-1.399-1.413-3.14-2.265-5.287-2.537h-7.263v25.006h4.07v-7.686h1.99l4.923,7.686h4.903l-5.55-8.538
			C253.971,151.59,254.701,151.028,255.474,150.265z M246.998,139.562h2.356c1.273,0,2.332,0.438,3.239,1.339
			c0.904,0.897,1.343,1.955,1.343,3.228c0,1.282-0.44,2.349-1.344,3.254c-0.906,0.904-1.965,1.343-3.238,1.343h-2.356V139.562z"/>
		<polygon fill="#63C19D" points="295.172,135.492 289.157,145.915 283.14,135.492 278.47,135.492 287.13,150.479 287.13,160.498 
			291.199,160.498 291.199,150.479 299.861,135.492 		"/>
	</g>
	<g>
		<path fill="#63C19D" d="M65.716,0H10.578H8.595H0v114.6h10.578V90.357v-3.129V76.65V64.793V10.579h55.138
			c8.649,0,15.685,7.037,15.685,15.686v34.701c0,8.649-7.036,15.685-15.685,15.685H15.868v10.579h49.849
			c14.482,0,26.263-11.782,26.263-26.264V26.264C91.979,11.782,80.198,0,65.716,0z"/>
		<path fill="#63C19D" d="M271.292,57.243h-1.794l-4.518,9.331l-18.084-41.957l-14.88,32.626h-13.331v-8.404V26.262
			c0-8.647,7.037-15.683,15.685-15.683h39.498c8.576,0,15.554,7.036,15.554,15.683v22.445v3.246H300v-3.246V26.262
			C300,11.781,288.276,0,273.868,0H234.37c-14.481,0-26.264,11.782-26.264,26.262v22.577v16.916v2.067h10.579h7.118h13.015
			l7.807-17.113l17.797,41.294l11.708-24.181h13.292V88.33c0,8.648-6.978,15.684-15.554,15.684H234.37
			c-8.647,0-15.685-7.035-15.685-15.684V73.11h-10.579v15.22c0,14.48,11.782,26.263,26.264,26.263h39.498
			c14.408,0,26.133-11.782,26.133-26.263V65.885v-8.643h-10.579H271.292z"/>
		<path fill="#63C19D" d="M163.909,87.229h5.83c14.481,0,26.263-11.782,26.263-26.264V26.264C196.001,11.782,184.22,0,169.739,0
			H114.6h-1.984h-8.595v114.6H114.6V92.782v-5.554V76.65v-9.432V10.579h55.139c8.648,0,15.685,7.037,15.685,15.686v34.701
			c0,8.649-7.036,15.685-15.685,15.685h-49.85v10.579h29.06l27.376,27.375h14.958L163.909,87.229z"/>
	</g>
</g>
</svg>
